<?xml version="1.0" encoding="UTF-8"?>
<svg id="Layer_1" xmlns="http://www.w3.org/2000/svg" version="1.1" viewBox="0 0 24 24">
  <!-- Generator: Adobe Illustrator 30.8.1, SVG Export Plug-In . SVG Version: 2.1.4 Build 1)  -->
  <defs>
    <style>
      .st0 {
        fill: #111;
      }

      .st1, .st2, .st3 {
        stroke: #111;
        stroke-linecap: round;
      }

      .st1, .st3 {
        fill: none;
      }

      .st2 {
        fill: #9a6b45;
      }

      .st2, .st3 {
        stroke-linejoin: round;
        stroke-width: 2px;
      }
    </style>
  </defs>
  <path class="st3" d="M12,20.5c.2,2.3,3.8,2.8,6.4.8,2-1.5,2-3.7.5-4.5"/>
  <circle class="st2" cx="6.4" cy="8.2" r="2.4"/>
  <circle class="st2" cx="17.6" cy="8.2" r="2.4"/>
  <path class="st2" d="M12,2.5c-2.8,1.4-5.1,4.7-5.4,9-.4,5.2,1.8,9.3,5.4,9.3s5.8-4.1,5.4-9.3c-.3-4.3-2.6-7.6-5.4-9Z"/>
  <g>
    <path class="st1" d="M10.9,3.3l-3.4-1.69"/>
    <path class="st1" d="M13.1,3.3l3.4-1.69"/>
  </g>
  <circle class="st0" cx="12" cy="2.53" r="1.41"/>
  <circle class="st0" cx="10.04" cy="5.74" r="1.27"/>
  <circle class="st0" cx="13.96" cy="5.74" r="1.27"/>
</svg>
